<mxfile host="app.diagrams.net" modified="2021-12-04T13:57:18.198Z" agent="5.0 (Macintosh; Intel Mac OS X 10_15_7) AppleWebKit/605.1.15 (KHTML, like Gecko) Version/15.0 Safari/605.1.15" etag="ezUIuMnzW9hpcXwZdGC8" version="15.9.1" type="github">
  <diagram id="x4OjMzEdD3lx_cpw1FRj" name="Page-1">
    <mxGraphModel dx="1298" dy="806" grid="1" gridSize="10" guides="1" tooltips="1" connect="1" arrows="1" fold="1" page="1" pageScale="1" pageWidth="827" pageHeight="1169" math="0" shadow="0">
      <root>
        <mxCell id="0" />
        <mxCell id="1" parent="0" />
        <mxCell id="NjA0ODwiRzguW6Djff1i-1" value="Feature vector 1" style="text;html=1;strokeColor=none;fillColor=none;align=center;verticalAlign=middle;whiteSpace=wrap;rounded=0;" vertex="1" parent="1">
          <mxGeometry x="80" y="265" width="130" height="30" as="geometry" />
        </mxCell>
        <mxCell id="NjA0ODwiRzguW6Djff1i-2" value="Feature vector 2" style="text;html=1;strokeColor=none;fillColor=none;align=center;verticalAlign=middle;whiteSpace=wrap;rounded=0;" vertex="1" parent="1">
          <mxGeometry x="80" y="465" width="130" height="30" as="geometry" />
        </mxCell>
        <mxCell id="NjA0ODwiRzguW6Djff1i-7" value="" style="endArrow=none;html=1;rounded=0;exitX=0.5;exitY=1;exitDx=0;exitDy=0;" edge="1" parent="1" source="NjA0ODwiRzguW6Djff1i-12">
          <mxGeometry width="50" height="50" relative="1" as="geometry">
            <mxPoint x="255" y="480" as="sourcePoint" />
            <mxPoint x="320" y="480" as="targetPoint" />
          </mxGeometry>
        </mxCell>
        <mxCell id="NjA0ODwiRzguW6Djff1i-8" value="" style="endArrow=none;html=1;rounded=0;exitX=0.5;exitY=1;exitDx=0;exitDy=0;" edge="1" parent="1" source="NjA0ODwiRzguW6Djff1i-14">
          <mxGeometry width="50" height="50" relative="1" as="geometry">
            <mxPoint x="255" y="275" as="sourcePoint" />
            <mxPoint x="320" y="280" as="targetPoint" />
          </mxGeometry>
        </mxCell>
        <mxCell id="NjA0ODwiRzguW6Djff1i-9" value="" style="endArrow=none;html=1;rounded=0;" edge="1" parent="1">
          <mxGeometry width="50" height="50" relative="1" as="geometry">
            <mxPoint x="320" y="480" as="sourcePoint" />
            <mxPoint x="320" y="280" as="targetPoint" />
          </mxGeometry>
        </mxCell>
        <mxCell id="NjA0ODwiRzguW6Djff1i-12" value="L2 Normalization" style="rounded=0;whiteSpace=wrap;html=1;rotation=-90;fillColor=#dae8fc;strokeColor=#6c8ebf;" vertex="1" parent="1">
          <mxGeometry x="179.38" y="465" width="120" height="30" as="geometry" />
        </mxCell>
        <mxCell id="NjA0ODwiRzguW6Djff1i-14" value="L2 Normalization" style="rounded=0;whiteSpace=wrap;html=1;rotation=-90;fillColor=#dae8fc;strokeColor=#6c8ebf;" vertex="1" parent="1">
          <mxGeometry x="179.38" y="265" width="120" height="30" as="geometry" />
        </mxCell>
        <mxCell id="NjA0ODwiRzguW6Djff1i-15" value="" style="endArrow=classic;html=1;rounded=0;" edge="1" parent="1">
          <mxGeometry width="50" height="50" relative="1" as="geometry">
            <mxPoint x="320" y="380" as="sourcePoint" />
            <mxPoint x="400" y="380" as="targetPoint" />
          </mxGeometry>
        </mxCell>
        <mxCell id="NjA0ODwiRzguW6Djff1i-16" value="Concatenate" style="text;html=1;strokeColor=none;fillColor=none;align=center;verticalAlign=middle;whiteSpace=wrap;rounded=0;" vertex="1" parent="1">
          <mxGeometry x="199.38" y="365" width="80" height="30" as="geometry" />
        </mxCell>
        <mxCell id="NjA0ODwiRzguW6Djff1i-17" value="Full layer" style="rounded=0;whiteSpace=wrap;html=1;rotation=-90;fillColor=#f8cecc;strokeColor=#b85450;" vertex="1" parent="1">
          <mxGeometry x="354" y="360" width="120" height="30" as="geometry" />
        </mxCell>
        <mxCell id="NjA0ODwiRzguW6Djff1i-18" value="" style="endArrow=classic;html=1;rounded=0;" edge="1" parent="1">
          <mxGeometry width="50" height="50" relative="1" as="geometry">
            <mxPoint x="430" y="380" as="sourcePoint" />
            <mxPoint x="510" y="380" as="targetPoint" />
          </mxGeometry>
        </mxCell>
        <mxCell id="NjA0ODwiRzguW6Djff1i-20" value="Decision" style="rhombus;whiteSpace=wrap;html=1;fillColor=#d5e8d4;strokeColor=#82b366;" vertex="1" parent="1">
          <mxGeometry x="510" y="340" width="80" height="80" as="geometry" />
        </mxCell>
      </root>
    </mxGraphModel>
  </diagram>
</mxfile>
